# xmcd CD database file
# Copyright (C) 1995-1998 Ti Kan
#
# Track frame offsets:
#	180
#	16581
#	42907
#	55579
#	76201
#	93754
#	111685
#	130436
#	149633
#	166952
#	183825
#	194626
#
# Disc length: 2853 seconds
#
# Revision: 1
# Processed by: cddbd v1.4b42PL1 Copyright (c) Steve Scherf et al.
# Submitted via: CDex 1.40Beta3
#
DISCID=a00b230c
DTITLE=Eddie Martin - Solo in Soho
DYEAR=1995
DGENRE=Blues
TTITLE0=Bourgeois Blues
TTITLE1=Somethin' 'Bout You Baby I Like
TTITLE2=Seperation Boogie
TTITLE3=You Thrill Me
TTITLE4=Edge Of The Line
TTITLE5=Closer To You
TTITLE6=Lonely World
TTITLE7=Sure Feel Good
TTITLE8=Revolution Of Love
TTITLE9=Key To The Highway
TTITLE10=Bristol Breakdown
TTITLE11=Love House
EXTD=YEAR: 1995 ID3G:   0
EXTT0=
EXTT1=
EXTT2=
EXTT3=
EXTT4=
EXTT5=
EXTT6=
EXTT7=
EXTT8=
EXTT9=
EXTT10=
EXTT11=
PLAYORDER=
